<?xml version="1.0" standalone="no"?><!DOCTYPE svg PUBLIC "-//W3C//DTD SVG 1.1//EN" "http://www.w3.org/Graphics/SVG/1.1/DTD/svg11.dtd"><svg t="1497627269456" class="icon" style="" viewBox="0 0 1024 1024" version="1.1" xmlns="http://www.w3.org/2000/svg" p-id="1689" xmlns:xlink="http://www.w3.org/1999/xlink" width="40" height="40"><defs><style type="text/css"></style></defs><path d="M731.8 108.5c-7.8-16.1-22.9-26-39.2-26H332.1c-16.4 0-31.4 10-39.2 26l-76.7 157.1h592.2l-76.6-157.1z" fill="#943423" p-id="1690"></path><path d="M816.4 270.6H208.2l80.2-164.3c8.7-17.8 25.4-28.8 43.7-28.8h360.5c18.3 0 35.1 11 43.7 28.8l80.1 164.3z m-592.2-10h576.2l-73.1-149.9c-6.9-14.3-20.2-23.2-34.7-23.2H332.1c-14.4 0-27.7 8.9-34.7 23.2l-73.2 149.9z" fill="" p-id="1691"></path><path d="M524.6 218h-300L251 465.4l31.8 298.1 14.1 131.8c2.7 25.4 24.2 44.7 49.7 44.7h330.9c25.6 0 47-19.3 49.7-44.7l14.1-131.8 31.8-298.1L799.6 218h-275z" fill="#FFD495" p-id="1692"></path><path d="M677.5 945H346.6c-28.2 0-51.7-21.1-54.7-49.2L277.8 764 246 465.9 219 213h586.1L778 465.9 746.3 764l-14.1 131.8c-3 28.1-26.5 49.2-54.7 49.2zM230.2 223L256 464.9 287.8 763l14.1 131.8c2.4 22.9 21.7 40.2 44.7 40.2h330.9c23.1 0 42.3-17.3 44.7-40.2L736.3 763l31.8-298.1L794 223H230.2z" fill="" p-id="1693"></path><path d="M772.9 343.9H251.3c-45.2 0-82.3-32.8-82.3-73 0-40.1 37-73 82.3-73h521.6c45.2 0 82.3 32.8 82.3 73s-37 73-82.3 73z" fill="#FFFFFF" p-id="1694"></path><path d="M772.9 348.9H251.3c-48.1 0-87.3-35-87.3-78s39.2-78 87.3-78h521.6c48.1 0 87.3 35 87.3 78s-39.2 78-87.3 78z m-521.6-146c-42.6 0-77.3 30.5-77.3 68s34.7 68 77.3 68h521.6c42.6 0 77.3-30.5 77.3-68s-34.7-68-77.3-68H251.3z" fill="" p-id="1695"></path><path d="M251 465.4l31.9 298.1h458.5l31.8-298.1z" fill="#BF7360" p-id="1696"></path><path d="M745.9 768.5H278.4l-33-308.1h533.3l-32.8 308.1z m-458.5-10h449.5l30.7-288.1h-511l30.8 288.1z" fill="" p-id="1697"></path><path d="M550.2 669.3l-33.8-16.9c-1.8-0.9-4-0.9-5.8 0.1l-33 18.3c-4.5 2.5-9.9-1.3-9.1-6.3l5.6-37.3c0.3-2-0.4-4.1-1.9-5.4L444.6 596c-3.8-3.5-1.9-9.8 3.2-10.6l37.2-6.2c2-0.3 3.7-1.6 4.6-3.5l16-34.2c2.2-4.7 8.7-4.8 11.1-0.2l17.4 33.5c0.9 1.8 2.7 3 4.7 3.3l37.5 4.6c5.1 0.6 7.3 6.8 3.7 10.5L553.5 620c-1.4 1.5-2.1 3.5-1.7 5.5l7.2 37.1c1 5-4.2 9-8.8 6.7z" fill="#943423" p-id="1698"></path><path d="M474.6 676.6c-2.2 0-4.5-0.7-6.4-2-3.5-2.5-5.3-6.6-4.6-10.8l5.6-37.3c0.1-0.4-0.1-0.8-0.2-0.9l-0.1-0.1-27.6-25.8c-3.2-2.9-4.4-7.3-3.1-11.4 1.2-4.1 4.7-7.1 8.9-7.8l37.2-6.2c0.5-0.1 0.8-0.5 0.9-0.7l16-34.2c1.8-3.9 5.6-6.4 9.9-6.5 4.3-0.1 8.2 2.2 10.2 6.1l17.4 33.5c0.2 0.3 0.5 0.6 1 0.7l37.4 4.6c4.2 0.5 7.8 3.3 9.2 7.4 1.4 4.1 0.5 8.5-2.5 11.6l-26.5 26.8c-0.2 0.2-0.5 0.6-0.4 1.1l7.2 37.1c0.8 4.2-0.8 8.4-4.2 11-3.4 2.6-7.9 3-11.8 1.1L514.3 657c-0.4-0.2-0.8-0.2-1.1 0l-33 18.3c-1.9 0.8-3.7 1.3-5.6 1.3z m1-58.5c2.7 2.4 4 6.2 3.5 9.8l-5.6 37.3c-0.1 0.6 0.2 0.9 0.5 1.1 0.3 0.2 0.7 0.4 1.3 0.1l33-18.3c3.2-1.8 7.1-1.9 10.5-0.2l33.8 16.9c0.4 0.2 0.8 0.2 1.2-0.1 0.3-0.2 0.5-0.6 0.4-1.1l-7.2-37.1c-0.7-3.5 0.4-7.1 3-9.9l0.1-0.1 26.5-26.8c0.4-0.4 0.4-0.9 0.3-1.2-0.1-0.3-0.4-0.7-1-0.8l-37.7-4.6c-3.7-0.5-6.8-2.8-8.4-6l-17.4-33.4c-0.3-0.6-0.8-0.7-1.1-0.7-0.5 0-0.8 0.2-1 0.7l-16 34.2c-1.6 3.4-4.8 5.8-8.4 6.3l-37.1 6.2c-0.5 0.1-0.8 0.3-1 0.8-0.1 0.5 0 0.9 0.3 1.2l27.5 25.7z" fill="" p-id="1699"></path></svg>