<?xml version="1.0" standalone="no"?><!DOCTYPE svg PUBLIC "-//W3C//DTD SVG 1.1//EN" "http://www.w3.org/Graphics/SVG/1.1/DTD/svg11.dtd"><svg t="1497626954874" class="icon" style="" viewBox="0 0 1024 1024" version="1.1" xmlns="http://www.w3.org/2000/svg" p-id="1132" xmlns:xlink="http://www.w3.org/1999/xlink" width="200" height="200"><defs><style type="text/css"></style></defs><path d="M966.8 387.1c12-1.5 21-11.7 21-23.8v-77.2c0-65.1-53-118.1-118.1-118.1H154.4c-65.1 0-118.1 53-118.1 118.1v77.2c0 12.1 9 22.3 21 23.8 63.2 8 110.8 61.7 110.8 124.9S120.4 628.9 57.2 636.9c-12 1.5-21 11.7-21 23.8v77.2c0 65.1 53 118.1 118.1 118.1h715.3c65.1 0 118.1-53 118.1-118.1v-77.2c0-12.1-9-22.3-21-23.8-63.1-8-110.7-61.7-110.7-124.9s47.6-116.9 110.8-124.9zM808 512c0 80.2 55.3 149.3 131.8 168.6v57.3c0 38.7-31.5 70.1-70.1 70.1H154.4c-38.7 0-70.1-31.5-70.1-70.1v-57.3C160.7 661.2 216 592.2 216 512c0-80.2-55.3-149.2-131.8-168.5v-57.3c0-38.7 31.5-70.1 70.1-70.1h715.3c38.7 0 70.1 31.4 70.1 70.1v57.3C863.3 362.8 808 431.8 808 512z" p-id="1133" fill="#ffffff"></path><path d="M286.1 700.2h37.6v75.3h-37.6zM286.1 587.3h37.6v75.3h-37.6zM286.1 474.4h37.6v75.3h-37.6zM286.1 361.4h37.6v75.3h-37.6zM286.1 248.5h37.6v75.3h-37.6zM737.9 323.8h-75.3l-75.3 112.9L512 323.8h-75.3l76.1 114h-94.9V494h131.7v56.3H436.7v56.3h112.9v93.6h75.3v-93.6h113v-56.3h-113V494h131.8v-56.2h-94.8z" p-id="1134" fill="#ffffff"></path></svg>