<?xml version="1.0" standalone="no"?><!DOCTYPE svg PUBLIC "-//W3C//DTD SVG 1.1//EN" "http://www.w3.org/Graphics/SVG/1.1/DTD/svg11.dtd"><svg t="1497626978215" class="icon" style="" viewBox="0 0 1024 1024" version="1.1" xmlns="http://www.w3.org/2000/svg" p-id="1502" xmlns:xlink="http://www.w3.org/1999/xlink" width="200" height="200"><defs><style type="text/css"></style></defs><path d="M418 418.7c-8.3 6-12 16-9.1 25.3l0.4 1.2c3.3 10.6 13.7 16.9 24.4 16.9 5.3 0 10.7-1.5 15.4-4.9 44.6-31.5 44.6-72.5 44.6-94.4V193.7c0-22.6 17.5-37.8 37.2-47.7 8.3-4.2 13.5-12.3 13.5-21.1 0-14-12.4-24.1-26-24.1-4.1 0-8.3 0.9-12.3 2.9-32.8 16.5-64.3 44.2-64.3 90v169.1c0.1 18.5 0 38.8-23.8 55.9zM595 364h331.9c14.9 0 33.2-19.1 33.2-32.9 0-13.8-18.3-32.9-33.2-32.9H595c-14.9 0-33.2 19.1-33.2 32.9 0 13.8 18.3 32.9 33.2 32.9zM303.3 418.7c-8.3 6-12 16-9.1 25.3l0.4 1.2c3.3 10.6 13.7 16.9 24.4 16.9 5.3 0 10.7-1.5 15.5-4.9 44.6-31.5 44.6-72.5 44.6-94.4V193.7c0-22.6 17.5-37.8 37.2-47.7 8.3-4.2 13.5-12.3 13.5-21.1 0-14-12.4-24.1-26-24.1-4.1 0-8.3 0.9-12.3 2.9-32.8 16.5-64.3 44.2-64.3 90v169.1c-0.1 18.5-0.2 38.8-23.9 55.9zM595 232.4h331.9c14.9 0 33.2-19.1 33.2-32.9 0-13.8-18.3-32.9-33.2-32.9H595c-14.9 0-33.2 19.1-33.2 32.9 0 13.8 18.3 32.9 33.2 32.9zM64 532.6c0 146.7 100.7 271.7 241.6 318.9v71.7h412.8v-71.7C859.3 804.2 960 679.3 960 532.6v-37H64v37z m847.8 11c-4.9 117.2-87.5 221.8-208.6 262.3-19.6 6.6-32.8 24.9-32.8 45.5v23.7H353.6v-23.7c0-20.6-13.2-39-32.8-45.5-121.1-40.6-203.7-145.1-208.6-262.3h799.6zM97.2 364h33.2c14.9 0 33.2-19.1 33.2-32.9 0-13.8-18.3-32.9-33.2-32.9H97.2c-14.9 0-33.2 19.1-33.2 32.9 0 13.8 18.3 32.9 33.2 32.9zM97.2 232.4h33.2c14.9 0 33.2-19.1 33.2-32.9 0-13.8-18.3-32.9-33.2-32.9H97.2c-14.9 0-33.2 19.1-33.2 32.9 0 13.8 18.3 32.9 33.2 32.9zM182 445.2c3.3 10.6 13.7 16.9 24.4 16.9 5.3 0 10.7-1.5 15.5-4.9 44.6-31.5 44.6-72.5 44.6-94.4V193.7c0-22.6 17.5-37.8 37.2-47.7 8.3-4.2 13.5-12.3 13.5-21.1 0-14-12.4-24.1-26-24.1-4.1 0-8.3 0.9-12.3 2.9-32.8 16.5-64.3 44.2-64.3 90v169.1c0 18.4-0.1 38.8-23.9 55.9-8.3 6-12 16-9.1 25.3l0.4 1.2z" p-id="1503" fill="#ffffff"></path></svg>