<?xml version="1.0" standalone="no"?><!DOCTYPE svg PUBLIC "-//W3C//DTD SVG 1.1//EN" "http://www.w3.org/Graphics/SVG/1.1/DTD/svg11.dtd"><svg t="1497626996729" class="icon" style="" viewBox="0 0 1024 1024" version="1.1" xmlns="http://www.w3.org/2000/svg" p-id="1857" xmlns:xlink="http://www.w3.org/1999/xlink" width="200" height="200"><defs><style type="text/css"></style></defs><path d="M959 513c-7.5-168.7-54.6-225.9-68.7-240.7-8.5-8.9-18.5-16.2-35.5-16.2-11.3 0-25.6 3.2-44.7 11.4-32.7 14-130.3 86.9-188.6 131.5-14.9-25.6-45.3-42.2-83.4-42.2h-49.7c-38.8 0-69.6 17.1-84.2 43.4-58-44.5-157.2-118.7-190.2-132.8-19.1-8.1-33.4-11.4-44.7-11.4-17 0-27 7.3-35.5 16.2C119.6 287.1 72.5 344.3 65 513c-6.9 153.9 23.5 211.6 46.2 233.4 13.7 13.2 32.9 21.7 52.7 21.7 11.6 0 23.4-2.9 34.4-9.4C220 745.8 341 647.1 406.2 593.5c15.3 26 45.1 42.8 82.2 42.8h49.7c36.5 0 66-16.2 81.5-41.5 65.5 53.9 184.8 151.2 206.3 163.9 11 6.5 22.8 9.4 34.4 9.4 19.8 0 39-8.5 52.7-21.7 22.5-21.9 52.9-79.5 46-233.4zM173.7 717.3c-3.1 1.8-6.3 2.7-9.9 2.7-6.7 0-14.1-3.2-19.4-8.2-6.5-6.2-38.3-44.9-31.5-196.7 6.6-147.6 44.2-197.8 55.5-209.7l1.4-1.4c2.6 0.1 10.3 1.1 25.3 7.5 26.2 11.2 126.8 85.4 201.4 143.3 0.6 3.7 1.4 7.2 2.3 10.2-40.5 16.9-81 27.4-121.5 31.4-8.6 0-15.7 7.4-15.7 16.5s7.1 16.5 15.7 16.5c46.4-4.6 88.8-14.9 125.7-33.1 1.4 0 2.7-0.5 4.1-0.9 0 6.8-1.1 9.5-3.2 14.1-3.7 7.9-7 16.5-8.4 30.3-100 82.6-205.4 167.5-221.8 177.5zM579.1 530c2.6 5.5 4.4 9.4 4.4 22.6 0 26.2-24.5 35.5-45.4 35.5h-49.7c-21 0-45.4-9.3-45.4-35.5 0-13.2 1.9-17.1 4.4-22.6 4.7-10 8.5-19.8 7.8-39.4-0.6-16.6-4.8-26-7.9-32.8-2.6-5.9-4.4-9.8-4.4-22.5 0-21 23.6-30.6 45.4-30.6H538c21.9 0 45.4 9.6 45.4 30.6 0 12.7-1.8 16.6-4.4 22.5-3.1 6.8-7.3 16.2-7.9 32.8-0.5 19.7 3.3 29.5 8 39.4z m300.4 181.8c-5.3 5.1-12.7 8.2-19.4 8.2-3.6 0-6.8-0.9-9.9-2.7-16.2-9.9-120-93.5-219.2-175.4-1.2-15-4.6-24.1-8.5-32.3-2.1-4.4-3.2-7.1-3.2-13.5 0.6 0.1 1.1 0.4 1.7 0.4 36.9 18.2 79.3 28.4 125.7 33.1 8.6 0 15.7-7.4 15.7-16.5s-7.1-16.5-15.7-16.5c-39.8-3.9-79.6-14.3-119.3-30.6 1.2-3.8 2.2-8.1 2.9-13.2 74.4-57.5 172.8-130.1 198.7-141.2 15-6.4 22.6-7.4 25.3-7.5 0.3 0.3 0.8 0.8 1.3 1.4 11.4 11.9 48.9 62.2 55.5 209.7 6.7 151.7-25.1 190.3-31.6 196.6z" p-id="1858" fill="#ffffff"></path></svg>