<?xml version="1.0" standalone="no"?><!DOCTYPE svg PUBLIC "-//W3C//DTD SVG 1.1//EN" "http://www.w3.org/Graphics/SVG/1.1/DTD/svg11.dtd"><svg t="1497717061635" class="icon" style="" viewBox="0 0 1024 1024" version="1.1" xmlns="http://www.w3.org/2000/svg" p-id="13465" xmlns:xlink="http://www.w3.org/1999/xlink" width="40" height="40"><defs><style type="text/css"></style></defs><path d="M512.005093 0c-282.21864 0-511.994883 229.636051-511.994883 511.995907 0 282.347576 229.736335 511.949858 511.994883 511.949858 282.316877 0 511.98465-229.601258 511.98465-511.949858C1023.990767 229.636051 794.35574 0 512.005093 0zM512.005093 959.850981c-247.02714 0-447.931822-200.936405-447.931822-447.896007C64.073271 264.85518 264.977954 63.990407 512.005093 63.990407c247.016907 0 447.965591 200.865797 447.965591 447.964568C960.000361 758.914576 759.022 959.850981 512.005093 959.850981z" p-id="13466" fill="#1296db"></path><path d="M666.009606 558.418192" p-id="13467" fill="#1296db"></path><path d="M776.930882 753.270019c-0.818645-0.656963-1.791809-1.096984-2.823302-1.277086-96.952122-17.108656-170.184007-63.519686-217.838354-138.02354l221.306338 0c1.355881 0 2.676969-0.441045 3.761674-1.254573 7.704472-5.783727 11.609409-12.07092 11.609409-18.683525 0-6.615675-3.903913-12.899798-11.609409-18.683525-1.084705-0.814552-2.405793-1.255597-3.761674-1.255597L528.528418 574.092174l0-25.65224c0-1.136893-0.308015-2.252297-0.892323-3.226484-3.204995-5.328355-6.52767-9.152451-10.032494-11.517311 27.652803-3.297093 53.257971-8.769734 76.417437-16.34834 31.896454-10.43977 60.057841-25.166169 83.703377-43.771923 23.702841-18.650779 43.499723-41.693588 58.83806-68.486814 15.276938-26.679639 26.538423-57.798381 33.476439-92.494601 0.040932-0.200568 0.069585-0.403183 0.090051-0.605797 1.556449-15.624862-1.726318-28.043706-9.755178-36.914748-9.348925-10.324136-25.03314-15.559371-46.62183-15.559371L609.901727 259.514545c0.264013-0.511653 0.454348-1.061169 0.568958-1.632173 1.613754-8.085142 0.708128-14.075577-2.765997-18.314111-2.034333-2.481518-5.973038-5.438872-13.158694-5.438872-4.185322 0-9.085936 0.952698-14.982226 2.910283-1.146103 0.38067-2.159176 1.085728-2.915399 2.029216-35.970236 44.965098-81.578993 87.521333-135.549186 126.490879-0.961908 0.692778-1.706875 1.6465-2.146896 2.747577-0.633427 1.578961-1.167592 3.098571-1.605567 4.560876L437.34672 247.539816c0-1.354857-0.438998-2.673899-1.25355-3.758604-5.783727-7.704472-12.07092-11.610432-18.683525-11.610432-6.614651 0-12.899798 3.90596-18.684548 11.610432-0.813528 1.084705-1.25355 2.403746-1.25355 3.758604l0 296.343335c0 1.130753 0.309038 2.243087 0.890276 3.217275 5.829775 9.724479 12.05864 14.449084 19.047822 14.449084 6.987135 0 13.218046-4.724605 19.045775-14.449084 0.583285-0.973164 0.8913-2.085498 0.8913-3.217275L437.34672 389.241119c0.376577 0.842181 0.825808 1.6465 1.346671 2.416026 3.607154 5.332449 10.252505 8.035 19.747763 8.035 1.087774 0 2.158153-0.283456 3.104711-0.823761 19.825534-11.323906 37.307697-24.14184 52.03819-38.147832 38.59297 30.614252 76.384691 64.151066 112.49819 99.825566-37.421284 21.146623-84.665285 33.265638-140.599202 36.052101-1.242294 0.063445-2.439562 0.494257-3.437286 1.242294-7.728008 5.783727-11.646248 12.07092-11.646248 18.688641s3.918239 12.904914 11.646248 18.687618c1.084705 0.812505 2.4017 1.25048 3.751441 1.25048 0.118704 0 0.239454-0.005117 0.358157-0.010233 3.650133-0.212848 7.266497-0.457418 10.856255-0.73678-2.573615 2.325975-5.053086 5.484921-7.463995 9.495258-0.584308 0.974188-0.895393 2.089591-0.895393 3.226484l0 25.65224L248.720688 574.09422c-1.133823 0-2.24718 0.309038-3.219321 0.890276-9.721409 5.830799-14.44806 12.06171-14.44806 19.047822 0 6.985088 4.726651 13.216 14.44806 19.044752 0.973164 0.584308 2.085498 0.892323 3.219321 0.892323l231.587496 0c-34.504862 65.828264-108.173698 110.719684-219.168652 133.496433-1.197268 0.246617-2.297322 0.836041-3.162016 1.698688-7.357572 7.337105-10.299577 14.411221-8.744151 21.033036 1.701758 7.237845 8.340969 12.698207 20.300348 16.694217 0.641613 0.215918 1.311879 0.323365 1.983167 0.323365 0.438998 0 0.87902-0.047072 1.312902-0.140193 64.303538-13.780865 117.950366-34.795481 159.448502-62.461587 38.160111-25.439392 67.026556-57.134255 85.951581-94.328365 24.025183 40.086997 55.583946 73.678046 93.951789 99.967806 41.525766 28.455075 92.137467 49.107441 150.429081 61.385069 0.425695 0.086981 0.859577 0.135076 1.288343 0.135076 0.582261 0 1.162476-0.080841 1.724271-0.242524 13.884218-3.979638 21.367657-9.564843 22.874987-17.07898C790.557227 764.179486 780.300629 755.969501 776.930882 753.270019zM429.376188 546.556027c-0.350994 0.5137-0.704035 0.994654-1.054005 1.462305C428.672153 547.549657 429.025194 547.069727 429.376188 546.556027c0.569982-0.831948 1.139963-1.724271 1.708921-2.671852C430.516151 544.831756 429.946169 545.724079 429.376188 546.556027zM427.666243 243.555062c0.435928 0.434905 0.87288 0.906649 1.307785 1.396813C428.539123 244.461711 428.101148 243.989967 427.666243 243.555062zM429.764021 245.87285c0.440022 0.529049 0.880043 1.079588 1.322112 1.666966C430.644064 246.952438 430.204042 246.4019 429.764021 245.87285zM604.331872 256.658498c0.167822-0.847298 0.291642-1.64957 0.394996-2.431376C604.623514 255.007905 604.499694 255.8112 604.331872 256.658498zM604.801569 253.586532c0.066515-0.610914 0.113587-1.203408 0.13917-1.771343C604.915156 252.383124 604.869107 252.975619 604.801569 253.586532zM545.209333 333.753363l34.360576-34.360576 125.063367 0c24.284079 0 25.579585 10.384511 25.647123 15.690354-14.232143 50.710962-38.129412 91.088578-71.063499 120.105449C617.519219 396.394029 579.216868 362.316909 545.209333 333.753363zM604.965298 251.340375c0.016373-0.690732 0.002047-1.350764-0.047072-1.974981C604.967345 249.991658 604.981671 250.649644 604.965298 251.340375zM603.340288 244.219187c0.536212 0.821715 0.939395 1.77646 1.211595 2.865257C604.28173 245.99667 603.877524 245.041926 603.340288 244.219187zM604.65319 247.545956c0.095167 0.452301 0.166799 0.927115 0.217964 1.422396C604.819989 248.473071 604.747334 247.998257 604.65319 247.545956zM603.109021 243.892753c-0.229221-0.315178-0.484024-0.608867-0.753153-0.88209C602.624997 243.282862 602.8798 243.577574 603.109021 243.892753zM602.13381 242.781442c-0.353041-0.322341-0.73985-0.61296-1.158383-0.870834C601.39396 242.169505 601.780769 242.459101 602.13381 242.781442zM595.724843 240.438071c0.64059 0.040932 1.260713 0.102331 1.831718 0.209778C596.985557 240.540402 596.365433 240.47798 595.724843 240.438071zM597.574981 240.650919c0.566912 0.106424 1.089821 0.254803 1.592264 0.426719C598.664802 240.905722 598.140869 240.757343 597.574981 240.650919zM599.575545 241.23011c0.393973 0.153496 0.766456 0.329505 1.119497 0.528026C600.342001 241.559615 599.968494 241.383606 599.575545 241.23011zM595.190677 240.416582c-0.629333-0.021489-1.269923-0.025583-1.960655 0.013303 0.451278-0.025583 0.88823-0.038886 1.312902-0.038886C594.767029 240.389976 594.97169 240.408395 595.190677 240.416582zM584.548293 242.055918c-0.973164 0.277316-1.970888 0.579191-3.01159 0.926092C582.577405 242.635109 583.575129 242.333234 584.548293 242.055918zM593.211603 240.430908c-0.734734 0.042979-1.514493 0.12996-2.319835 0.240477C591.696087 240.560868 592.476869 240.472863 593.211603 240.430908zM590.532588 240.720503c-0.777713 0.115634-1.589195 0.26606-2.427282 0.445138C588.943393 240.986563 589.754875 240.836137 590.532588 240.720503zM587.623328 241.271042c-0.853437 0.192382-1.734504 0.409322-2.65241 0.663102C585.888824 241.680365 586.769891 241.4624 587.623328 241.271042z" p-id="13468" fill="#1296db"></path><path d="M268.982151 546.241872c2.451842 0 5.188162-0.251733 8.131191-0.744967 1.01205-0.168846 1.966795-0.584308 2.780323-1.211595 39.698141-30.534434 76.834946-66.125023 110.38097-105.779162 0.322341-0.381693 0.596588-0.798179 0.820692-1.243317 5.355985-10.715039 6.185886-18.796088 2.534729-24.704658-3.198855-5.174859-9.322319-7.79964-18.199501-7.79964l-0.001023 0c-2.699482 0-5.743818 0.23843-9.05319 0.709151-1.517563 0.215918-2.90619 0.982374-3.897773 2.155083-32.973996 38.978756-69.464071 73.949222-108.455107 103.94028-0.988514 0.757247-1.726318 1.794879-2.121314 2.978844-3.664459 10.969842-3.473101 19.040658 0.583285 24.672936C255.842899 543.877011 261.394335 546.241872 268.982151 546.241872zM255.569677 528.691147c0.002047 0.116657 0.005117 0.237407 0.010233 0.354064C255.574793 528.928554 255.571723 528.807804 255.569677 528.691147zM255.729312 530.703991c0.013303 0.092098 0.031722 0.185218 0.047072 0.278339C255.761035 530.889209 255.742615 530.798135 255.729312 530.703991zM256.116122 532.530592c0.00307 0.010233 0.005117 0.019443 0.008186 0.029676C256.121239 532.549012 256.119192 532.539802 256.116122 532.530592zM256.655404 533.959128c0.035816 0.076748 0.068562 0.157589 0.106424 0.236384C256.724989 534.116717 256.69122 534.035876 256.655404 533.959128zM257.451537 535.379477c0.052189 0.075725 0.106424 0.149403 0.161682 0.223081C257.55796 535.528879 257.503725 535.455201 257.451537 535.379477zM258.496332 536.644283c0.037862 0.038886 0.081864 0.072655 0.12075 0.109494C258.577173 536.716938 258.534195 536.683169 258.496332 536.644283zM259.650622 537.609261c0.049119 0.034792 0.093121 0.069585 0.143263 0.105401C259.743742 537.679869 259.698717 537.645077 259.650622 537.609261zM261.044365 538.439162c0.086981 0.040932 0.171915 0.084934 0.25992 0.12382C261.21628 538.524097 261.131346 538.480094 261.044365 538.439162zM262.725657 539.120684c0.082888 0.026606 0.169869 0.052189 0.25378 0.076748C262.895526 539.172873 262.808545 539.14729 262.725657 539.120684zM264.649472 539.612894c0.004093 0 0.008186 0 0.013303 0.00307C264.658682 539.612894 264.654589 539.612894 264.649472 539.612894zM266.535426 539.865651c0.102331 0.00921 0.201591 0.021489 0.304945 0.028653C266.737017 539.886117 266.637756 539.873838 266.535426 539.865651zM268.821492 539.975145c0.163729 0 0.330528 0 0.497327-0.00307-0.110517 0.00307-0.228197 0.010233-0.337691 0.010233C268.926892 539.982308 268.877774 539.975145 268.821492 539.975145zM270.288913 539.948539c0.201591-0.008186 0.403183-0.016373 0.608867-0.026606C270.691072 539.932166 270.489481 539.940352 270.288913 539.948539zM271.931319 539.847232c0.204661-0.017396 0.407276-0.033769 0.615007-0.054235C272.338595 539.813462 272.135981 539.829835 271.931319 539.847232zM273.719035 539.66099c0.186242-0.021489 0.366344-0.040932 0.555655-0.065492C274.086402 539.620058 273.905277 539.6395 273.719035 539.66099zM386.705343 431.886381c0.061398-0.1361 0.124843-0.276293 0.184195-0.411369C386.830186 431.611112 386.766741 431.750281 386.705343 431.886381zM387.817676 429.172573c0.055259-0.145309 0.106424-0.288572 0.158612-0.432859C387.925124 428.882977 387.872935 429.027264 387.817676 429.172573zM388.68851 426.569282c0.022513-0.083911 0.041956-0.162706 0.064468-0.245593C388.730465 426.406576 388.712046 426.485371 388.68851 426.569282zM389.221652 424.36815c0.01535-0.074701 0.034792-0.152473 0.049119-0.227174C389.255422 424.215678 389.235979 424.293449 389.221652 424.36815zM389.522504 422.290839c0.00921-0.11461 0.019443-0.229221 0.027629-0.342808C389.541947 422.061618 389.531714 422.176229 389.522504 422.290839zM389.571623 420.283112c-0.004093-0.091074-0.013303-0.181125-0.019443-0.271176C389.55832 420.101987 389.56753 420.191014 389.571623 420.283112zM389.336263 418.436044c0-0.002047-0.001023-0.005117-0.002047-0.008186C389.336263 418.431951 389.336263 418.433998 389.336263 418.436044zM388.884985 417.021835c-0.029676-0.072655-0.056282-0.148379-0.088004-0.218988C388.82768 416.873456 388.855309 416.94918 388.884985 417.021835zM388.136948 415.611719c-0.049119-0.073678-0.100284-0.144286-0.151449-0.214894C388.036664 415.467433 388.087829 415.538041 388.136948 415.611719zM387.087036 414.351006c-0.038886-0.037862-0.083911-0.071631-0.12382-0.10847C387.003125 414.278351 387.04815 414.313144 387.087036 414.351006zM385.730132 413.284721c0.045025 0.028653 0.084934 0.062422 0.130983 0.092098C385.815066 413.347143 385.775157 413.314397 385.730132 413.284721zM384.366065 412.559197c-0.091074-0.041956-0.182149-0.083911-0.275269-0.122797C384.183916 412.475286 384.27499 412.517241 384.366065 412.559197zM382.52002 411.879722c-0.094144-0.027629-0.193405-0.051165-0.290619-0.077771C382.326615 411.828556 382.425876 411.852092 382.52002 411.879722zM380.351634 411.386488c-0.002047 0-0.00614 0-0.00921-0.001023C380.345495 411.386488 380.349588 411.386488 380.351634 411.386488zM378.229297 411.136801c-0.115634-0.00921-0.229221-0.021489-0.346901-0.028653C378.000077 411.114289 378.113664 411.126568 378.229297 411.136801zM375.62703 411.027307c-0.195451-0.001023-0.390903-0.001023-0.589424 0.001023 0.12689-0.001023 0.264013-0.008186 0.38988-0.008186C375.498093 411.020144 375.557445 411.026284 375.62703 411.027307zM373.959041 411.05289c-0.239454 0.007163-0.479931 0.01535-0.723477 0.027629C373.47911 411.06824 373.719587 411.060053 373.959041 411.05289zM372.066947 411.152151c-0.2415 0.017396-0.479931 0.031722-0.725524 0.053212C371.587017 411.184897 371.825447 411.168524 372.066947 411.152151zM369.999869 411.333276c-0.217964 0.023536-0.429789 0.041956-0.652869 0.067538C369.57008 411.375232 369.781905 411.356812 369.999869 411.333276zM255.600376 526.849196c0.005117-0.077771 0.014326-0.160659 0.019443-0.239454C255.614702 526.688537 255.605492 526.771425 255.600376 526.849196zM255.828573 524.658298c0.01228-0.080841 0.019443-0.156566 0.030699-0.240477C255.848016 524.501732 255.840853 524.577456 255.828573 524.658298zM256.260408 522.244318c0.029676-0.14224 0.060375-0.283456 0.092098-0.427742C256.320783 521.960863 256.290084 522.103102 256.260408 522.244318zM256.927604 519.513114c0.038886-0.137123 0.079818-0.274246 0.118704-0.411369C257.008445 519.238868 256.966489 519.377014 256.927604 519.513114z" p-id="13469" fill="#1296db"></path><path d="M271.010344 287.691281c24.160259 33.264615 47.148833 65.448618 68.326155 95.656617 0.503467 0.717338 1.150196 1.321088 1.902326 1.771343 6.106068 3.669576 11.299347 5.453199 15.877619 5.453199 6.125511 0 16.402575-3.181459 16.402575-24.495904 0-1.134847-0.309038-2.249227-0.892323-3.222391-18.305925-30.495548-41.48995-62.957891-68.909439-96.483448-0.751107-0.917906-1.747807-1.603521-2.873444-1.977028-5.897314-1.959631-10.797927-2.910283-14.984273-2.910283 0 0-0.001023 0-0.001023 0-7.206122 0-11.144828 2.966565-13.181207 5.455245-3.474125 4.244674-4.368494 10.234085-2.737344 18.312064C270.116997 286.132786 270.482318 286.963711 271.010344 287.691281zM275.674573 281.58419c0.104377 0.781806 0.231267 1.582031 0.401136 2.428306C275.905841 283.166221 275.778951 282.364973 275.674573 281.58419zM275.456609 279.17635c0.026606 0.565888 0.073678 1.152243 0.14224 1.760087C275.530287 280.329617 275.483215 279.742239 275.456609 279.17635zM356.89848 384.30162c0.113587 0.001023 0.229221 0.00614 0.340761 0.005117-0.041956 0-0.080841 0.00614-0.122797 0.00614C357.045836 384.312876 356.970111 384.303666 356.89848 384.30162zM346.134322 380.716978c0.161682 0.089028 0.320295 0.173962 0.480954 0.258896C346.45564 380.89094 346.296004 380.806006 346.134322 380.716978zM347.803334 381.595998c0.155543 0.076748 0.312108 0.156566 0.464581 0.231267C348.115442 381.752564 347.958877 381.672746 347.803334 381.595998zM349.796735 382.5313c0.001023 0.001023 0.004093 0.002047 0.005117 0.002047C349.800828 382.53437 349.798781 382.532323 349.796735 382.5313zM351.255969 383.108444c0.14224 0.052189 0.282433 0.100284 0.423649 0.149403C351.538402 383.208728 351.398209 383.160633 351.255969 383.108444zM352.703947 383.588375c0.135076 0.040932 0.271176 0.081864 0.404206 0.118704C352.975124 383.67024 352.839024 383.629307 352.703947 383.588375zM354.424125 384.028397c0.002047 0 0.00307 0 0.005117 0.001023C354.427195 384.028397 354.426172 384.028397 354.424125 384.028397zM355.672559 384.220778c0.12075 0.014326 0.237407 0.022513 0.355087 0.033769C355.908942 384.243291 355.792286 384.235105 355.672559 384.220778zM358.343388 384.241244C358.343388 384.241244 358.343388 384.241244 358.343388 384.241244 358.343388 384.241244 358.343388 384.241244 358.343388 384.241244zM359.376927 384.049886c0.098237-0.024559 0.194428-0.054235 0.291642-0.080841C359.571355 383.996674 359.475165 384.025327 359.376927 384.049886zM360.38386 383.730615c0.090051-0.035816 0.184195-0.069585 0.274246-0.107447C360.568056 383.66103 360.473911 383.695822 360.38386 383.730615zM362.372144 382.594745c0.075725-0.061398 0.149403-0.125867 0.224104-0.189312C362.521547 382.468878 362.447869 382.53437 362.372144 382.594745zM363.15702 381.875361c0.070608-0.071631 0.141216-0.14224 0.208754-0.215918C363.298237 381.734144 363.227628 381.803729 363.15702 381.875361zM364.654117 379.856377c0.056282-0.096191 0.106424-0.197498 0.160659-0.296759C364.761564 379.658879 364.710399 379.76121 364.654117 379.856377zM365.218982 378.735857c0.049119-0.107447 0.098237-0.212848 0.144286-0.322341C365.31722 378.523009 365.268101 378.62841 365.218982 378.735857zM366.224892 375.837854c0.033769-0.13303 0.065492-0.273223 0.100284-0.409322C366.290384 375.564631 366.257638 375.704824 366.224892 375.837854zM366.563607 374.321314c0.029676-0.146333 0.059352-0.290619 0.085958-0.440022C366.622958 374.030695 366.593283 374.174981 366.563607 374.321314zM367.080376 370.541221c0.014326-0.174985 0.026606-0.355087 0.038886-0.532119C367.106982 370.186134 367.094703 370.366236 367.080376 370.541221zM367.198056 368.630708c0.00921-0.188288 0.01842-0.375553 0.023536-0.566912C367.215453 368.255155 367.207266 368.44242 367.198056 368.630708zM285.858517 267.744997c0.426719 0 0.865717 0.013303 1.318018 0.039909-0.689708-0.039909-1.334391-0.034792-1.962701-0.013303C285.429751 267.762393 285.634413 267.744997 285.858517 267.744997zM298.871902 270.336008c-1.046842-0.346901-2.049682-0.651846-3.02694-0.929162C296.822219 269.685185 297.824036 269.987061 298.871902 270.336008zM295.439733 269.290189c-0.923022-0.255827-1.811252-0.475837-2.670829-0.669242C293.628481 268.814352 294.51671 269.034363 295.439733 269.290189zM292.314555 268.521686c-0.848321-0.181125-1.667989-0.332575-2.451842-0.449231C290.646566 268.190135 291.466235 268.341584 292.314555 268.521686zM289.526046 268.027429c-0.810459-0.112564-1.597381-0.199545-2.338255-0.2415C287.929688 267.827885 288.715588 267.914866 289.526046 268.027429zM279.411688 269.270746c-0.414439 0.254803-0.796132 0.541329-1.14508 0.860601C278.615555 269.812075 278.997249 269.524526 279.411688 269.270746zM284.673528 267.793092c-0.639566 0.039909-1.25662 0.101307-1.829671 0.207731C283.416908 267.893376 284.034985 267.833001 284.673528 267.793092zM282.800878 268.011057c-0.555655 0.105401-1.070378 0.25071-1.562589 0.418532C281.730499 268.261767 282.245222 268.116457 282.800878 268.011057zM280.811571 268.589225c-0.384763 0.150426-0.750083 0.323365-1.094938 0.51677C280.060464 268.912589 280.425784 268.739651 280.811571 268.589225zM275.841372 274.432303c0.132006-0.529049 0.284479-1.034563 0.478907-1.499144C276.126875 273.39774 275.973379 273.903254 275.841372 274.432303zM276.336653 272.891204c0.199545-0.472767 0.444115-0.900509 0.709151-1.308809C276.780767 271.990694 276.536197 272.418436 276.336653 272.891204zM277.290374 271.237541c0.224104-0.306992 0.468674-0.593518 0.734734-0.859577C277.760071 270.645047 277.515501 270.930549 277.290374 271.237541zM275.476052 276.724509c-0.048095 0.623193-0.062422 1.279133-0.045025 1.965771C275.41363 278.003642 275.42898 277.347702 275.476052 276.724509zM275.736995 274.910187c-0.092098 0.447185-0.162706 0.912789-0.213871 1.39886C275.574289 275.821953 275.644898 275.356348 275.736995 274.910187z" p-id="13470" fill="#1296db"></path></svg>